<svg width="89" height="88" viewBox="0 0 89 88" fill="none" xmlns="http://www.w3.org/2000/svg">
<g filter="url(#filter0_d_3188_1433)">
<rect x="8.45776" y="4" width="72" height="72" rx="24" fill="white" shape-rendering="crispEdges"/>
<path d="M43.1453 40.6875C42.6869 41.1042 42.2286 41.1042 41.7703 40.6875L38.2703 37.1875C37.8536 36.7292 37.8536 36.2708 38.2703 35.8125C38.7286 35.3958 39.1869 35.3958 39.6453 35.8125L42.4578 38.5625L48.7703 32.3125C49.2286 31.8958 49.6869 31.8958 50.1453 32.3125C50.5619 32.7708 50.5619 33.2292 50.1453 33.6875L43.1453 40.6875ZM56.4578 36C56.3744 37.875 55.7078 40.0417 54.4578 42.5C53.1661 44.9583 51.7078 47.3333 50.0828 49.625C48.4578 51.9583 47.0828 53.8125 45.9578 55.1875C45.5411 55.6875 45.0411 55.9375 44.4578 55.9375C43.8744 55.9375 43.3744 55.6875 42.9578 55.1875C41.8328 53.8125 40.4369 51.9583 38.7703 49.625C37.1453 47.3333 35.7078 44.9583 34.4578 42.5C33.2078 40.0417 32.5411 37.875 32.4578 36C32.5411 32.5833 33.7078 29.75 35.9578 27.5C38.2078 25.25 41.0411 24.0833 44.4578 24C47.8744 24.0833 50.7078 25.25 52.9578 27.5C55.2078 29.75 56.3744 32.5833 56.4578 36ZM44.4578 26C41.6244 26.0833 39.2703 27.0625 37.3953 28.9375C35.5203 30.8125 34.5411 33.1667 34.4578 36C34.4578 37 34.8119 38.3125 35.5203 39.9375C36.2286 41.6042 37.1244 43.3333 38.2078 45.125C39.2911 46.875 40.3953 48.5 41.5203 50C42.6453 51.5417 43.6244 52.8333 44.4578 53.875C45.2911 52.8333 46.2703 51.5417 47.3953 50C48.5203 48.5 49.6244 46.875 50.7078 45.125C51.7911 43.3333 52.6869 41.6042 53.3953 39.9375C54.1036 38.3125 54.4578 37 54.4578 36C54.3744 33.1667 53.3953 30.8125 51.5203 28.9375C49.6453 27.0625 47.2911 26.0833 44.4578 26Z" fill="#FFCC66"/>
</g>
<defs>
<filter id="filter0_d_3188_1433" x="0.457764" y="0" width="88" height="88" filterUnits="userSpaceOnUse" color-interpolation-filters="sRGB">
<feFlood flood-opacity="0" result="BackgroundImageFix"/>
<feColorMatrix in="SourceAlpha" type="matrix" values="0 0 0 0 0 0 0 0 0 0 0 0 0 0 0 0 0 0 127 0" result="hardAlpha"/>
<feOffset dy="4"/>
<feGaussianBlur stdDeviation="4"/>
<feComposite in2="hardAlpha" operator="out"/>
<feColorMatrix type="matrix" values="0 0 0 0 1 0 0 0 0 0.8 0 0 0 0 0.4 0 0 0 0.24 0"/>
<feBlend mode="normal" in2="BackgroundImageFix" result="effect1_dropShadow_3188_1433"/>
<feBlend mode="normal" in="SourceGraphic" in2="effect1_dropShadow_3188_1433" result="shape"/>
</filter>
</defs>
</svg>
